<svg width="972" height="644" xmlns="http://www.w3.org/2000/svg"><defs><linearGradient x1="29.545%" y1="20.481%" x2="-2.83%" y2="99.876%" id="a"><stop stop-color="#FFF" stop-opacity="0" offset="0%"/><stop stop-color="#C0E4EE" offset="100%"/></linearGradient></defs><g fill="none" fill-rule="evenodd"><path d="M467.982 22.772C704.519 50.53 754.09 121.746 803.473 185.523c49.383 63.778 176.994 102.275 79.686 194.051-97.308 91.777-154.235 116.878-183.506 178.145-29.27 61.266-96.5 102.791-223.35 79.445-126.852-23.346-188.727 26.387-294.393-115.918C76.244 378.942-80.669 361.78 50.5 215.03 181.67 68.277 231.445-4.987 467.982 22.772z" fill="#F4FBFD"/><path d="M402.194 422.493c168.024 20.457 301.93 30.686 401.715 30.686 75.31-20.458 142.582-64.991 201.814-133.6L402.193 0v422.493z" fill="url(#a)"/></g></svg>