<svg width="466" height="466" xmlns="http://www.w3.org/2000/svg" xmlns:xlink="http://www.w3.org/1999/xlink"><defs><path d="M182.002 372.066c-.754 0-1.532-.072-2.286-.19-2.782-.501-4.644-3.195-4.149-6.008.495-2.812 3.159-4.696 5.94-4.195.99.167 2.004-.167 2.64-.953.754-.906.73-2.027.471-2.79-1.532-4.433-.636-9.367 2.357-12.943a12.994 12.994 0 0 1 12.281-4.433c.73.119 1.839-.048 2.617-.954.754-.906.754-2.026.495-2.789-.943-2.693.47-5.673 3.134-6.602 2.64-.954 5.61.477 6.53 3.17 1.532 4.434.636 9.368-2.358 12.943a13.056 13.056 0 0 1-12.256 4.458 2.811 2.811 0 0 0-2.64.953c-.754.906-.754 2.026-.495 2.765 1.532 4.434.636 9.392-2.357 12.944-2.452 2.956-6.129 4.624-9.923 4.624h-.001zm218.242 85.124a5.139 5.139 0 0 1-5.077-4.392c-.118-.775-.637-1.762-1.723-2.208-1.063-.423-2.15-.07-2.787.423a13.246 13.246 0 0 1-12.915 1.785c-4.297-1.715-7.391-5.637-8.028-10.217a2.794 2.794 0 0 0-1.724-2.16c-1.086-.446-2.149-.094-2.762.399-2.244 1.738-5.478 1.315-7.202-.892-1.724-2.232-1.322-5.45.897-7.164a13.238 13.238 0 0 1 12.94-1.808c4.297 1.738 7.39 5.637 8.05 10.216.143 1.01.78 1.832 1.725 2.184 1.11.447 2.148.094 2.786-.399 3.683-2.818 8.642-3.5 12.915-1.808 4.298 1.738 7.391 5.66 8.028 10.216a5.1 5.1 0 0 1-4.344 5.778c-.284.023-.543.047-.78.047zM238.132 136.827a5.114 5.114 0 0 1-4.908-3.677c-.826-2.729.708-5.623 3.422-6.43.99-.308 1.722-1.067 1.958-2.063.284-1.139-.236-2.135-.826-2.705a13.2 13.2 0 0 1-3.658-12.549c1.086-4.555 4.508-8.208 8.992-9.513.708-.213 1.628-.877 1.911-2.04.284-1.162-.235-2.158-.802-2.704-2.053-1.97-2.124-5.243-.165-7.306a5.124 5.124 0 0 1 7.268-.167 13.241 13.241 0 0 1 3.682 12.597c-1.062 4.484-4.508 8.137-8.944 9.49a2.741 2.741 0 0 0-1.936 2.015c-.283 1.163.236 2.16.803 2.705 3.35 3.25 4.767 8.065 3.681 12.573-1.109 4.507-4.53 8.16-8.968 9.513-.519.19-1.038.26-1.51.26zm187.287-48.71c-2.296 0-4.381-1.592-4.943-3.944-.235-.998-.961-1.782-1.898-2.067-.937-.285-1.968-.024-2.695.665-3.397 3.207-8.223 4.348-12.605 3.017-4.404-1.306-7.848-4.965-8.903-9.526-.164-.713-.796-1.663-1.898-2.02a2.751 2.751 0 0 0-2.717.666c-2.062 1.948-5.272 1.853-7.193-.238a5.23 5.23 0 0 1 .234-7.317c3.374-3.207 8.177-4.395 12.605-3.04 4.382 1.306 7.802 4.94 8.904 9.478.234 1.022.96 1.782 1.897 2.067 1.125.357 2.156-.119 2.742-.665 3.35-3.183 8.176-4.371 12.581-3.04 4.405 1.33 7.802 4.964 8.903 9.502.68 2.78-1.007 5.559-3.725 6.247-.468.167-.89.214-1.288.214zm32.46 186.41a13.064 13.064 0 0 1-10.262-5.01c-2.854-3.627-3.586-8.613-1.91-13.003.306-.787.353-1.86-.378-2.791-.755-.978-1.864-1.169-2.619-1.074a13.086 13.086 0 0 1-12.125-4.89c-2.878-3.674-3.586-8.66-1.887-13.026 1.038-2.672 4.034-3.984 6.653-2.935 2.642 1.05 3.94 4.056 2.901 6.728-.283.74-.33 1.861.401 2.792.613.787 1.534 1.169 2.619 1.026 4.576-.669 9.223 1.216 12.101 4.914 2.878 3.626 3.633 8.637 1.888 13.026-.26.692-.307 1.837.424 2.767.731.955 1.864 1.17 2.595 1.05 2.831-.477 5.402 1.55 5.803 4.39.401 2.839-1.533 5.463-4.34 5.869-.614.119-1.25.167-1.864.167zM111.714 80.621c-.64 0-1.278-.119-1.894-.357-2.65-1.047-3.928-4.072-2.887-6.739.379-.952.237-2-.379-2.786-.71-.928-1.822-1.143-2.603-1.024-4.639.62-9.301-1.262-12.14-4.953-2.888-3.643-3.598-8.644-1.847-13.025.284-.69.331-1.833-.402-2.762-.734-.952-1.823-1.143-2.604-1.048-2.84.405-5.42-1.571-5.822-4.405-.402-2.834 1.562-5.453 4.379-5.858a13.092 13.092 0 0 1 12.164 4.906c2.84 3.643 3.574 8.62 1.87 13-.379.953-.237 2.001.379 2.787.757.976 1.846 1.167 2.627 1.071 4.615-.666 9.23 1.239 12.093 4.906 2.864 3.69 3.574 8.668 1.87 13.025a5.17 5.17 0 0 1-4.804 3.262zM39.61 460h-.236c-2.825-.143-5.015-2.571-4.874-5.428a2.842 2.842 0 0 0-1.271-2.523c-.966-.619-2.073-.476-2.755-.119-4.192 2.119-9.16 1.857-13.022-.69-3.885-2.5-6.192-6.998-5.934-11.712.024-.737-.282-1.832-1.271-2.475a2.724 2.724 0 0 0-2.779-.12c-2.52 1.31-5.604.31-6.899-2.237s-.306-5.665 2.214-6.974a13.005 13.005 0 0 1 13.021.643c3.862 2.523 6.146 6.998 5.934 11.664-.047 1.047.424 1.975 1.248 2.5a2.805 2.805 0 0 0 2.85.142 12.929 12.929 0 0 1 12.95.666c3.885 2.547 6.169 7.022 5.933 11.712-.117 2.809-2.401 4.951-5.11 4.951zM8.139 226.752c-2.241 0-4.295-1.53-4.902-3.852-1.19-4.57.07-9.474 3.315-12.8a12.797 12.797 0 0 1 12.442-3.468c.77.215 1.844.12 2.661-.718.84-.861.91-1.986.724-2.775-1.167-4.57.093-9.45 3.315-12.776a12.812 12.812 0 0 1 12.442-3.469c2.708.718 4.342 3.565 3.642 6.34-.7 2.776-3.502 4.45-6.187 3.733-.77-.192-1.867-.12-2.684.741-.7.718-.957 1.747-.7 2.752 1.167 4.545-.094 9.426-3.339 12.751-3.198 3.35-7.983 4.666-12.442 3.47a2.805 2.805 0 0 0-2.661.741c-.818.861-.888 1.962-.7 2.752.723 2.775-.888 5.622-3.596 6.364a3.86 3.86 0 0 1-1.33.215zm175.465 186.42c0 12.478-18.64 12.478-18.64 0 0-12.502 18.64-12.502 18.64 0zm47.532-142.383c0 12.477-18.64 12.477-18.64 0 0-12.502 18.64-12.502 18.64 0zm-62.444-168.622c0 12.49-18.64 12.49-18.64 0s18.64-12.49 18.64 0zm177.08 29.04c0 12.489-18.64 12.489-18.64 0 0-12.49 18.64-12.49 18.64 0zm60.58 182.653c0 12.502-18.64 12.502-18.64 0 0-12.477 18.64-12.477 18.64 0zM466 10.358c0 12.502-18.64 12.502-18.64 0 0-12.477 18.64-12.477 18.64 0zm-180.808 0c0 12.502-18.64 12.502-18.64 0 0-12.477 18.64-12.477 18.64 0zm29.824 382.206c0 12.478-18.64 12.478-18.64 0 0-12.502 18.64-12.502 18.64 0zM73.628 320.417c0 12.502-18.64 12.502-18.64 0 0-12.477 18.64-12.477 18.64 0zm0-182.654c0 12.49-18.64 12.49-18.64 0s18.64-12.49 18.64 0z" id="a"/><path d="M282.544 466c-.574 0-1.148-.023-1.746-.091-4.664-.433-8.85-2.576-11.815-6.019-2.966-3.465-4.353-7.82-3.898-12.265.167-1.596 1.674-2.69 3.348-2.622l28.796 2.713c.813.091 1.555.456 2.08 1.071.527.593.766 1.368.67 2.144-.908 8.595-8.395 15.069-17.435 15.069zm-11.265-14.842a10.707 10.707 0 0 0 2.416 5.039c1.937 2.257 4.664 3.625 7.701 3.92 5.382.57 9.998-2.461 11.792-6.884l-21.909-2.075z" id="b"/><path d="M418.085 411c-1.685 0-3.37-.267-5.01-.802-1.57-.51-2.424-2.235-1.94-3.887l8.243-28.106a3.145 3.145 0 0 1 1.432-1.846 2.83 2.83 0 0 1 2.262-.219c8.912 2.915 13.923 12.9 11.175 22.276-2.193 7.53-8.682 12.584-16.162 12.584zm-.323-6.243h.323c4.849 0 9.074-3.28 10.505-8.163 1.501-5.077-.53-10.445-4.571-13.166l-6.257 21.329z" id="c"/><path d="M107.317 403c-.59 0-1.202-.169-1.72-.555L82.27 385.663a2.941 2.941 0 0 1-1.225-2.001c-.141-.82.047-1.64.518-2.315 5.278-7.692 16.54-9.717 24.08-4.292 3.77 2.7 6.29 6.752 7.092 11.405a17.915 17.915 0 0 1-2.898 13.238c-.636.82-1.579 1.302-2.521 1.302zm-18.779-20.375l17.718 12.731c.636-1.856.825-3.858.472-5.835-.519-3.014-2.145-5.642-4.618-7.402-4.053-2.942-9.825-2.628-13.572.506z" id="d"/><path d="M109.268 248a17.843 17.843 0 0 1-14.732-7.775c-.97-1.425-.582-3.332.824-4.298l24.279-16.394a3.171 3.171 0 0 1 2.326-.483c.8.145 1.526.628 1.987 1.304 5.5 8.089 3.343 19.123-4.75 24.58a17.546 17.546 0 0 1-9.934 3.066zm-7.487-8.934c3.78 3.187 9.74 3.622 13.957.748 4.385-2.97 6.106-8.426 4.482-13.207l-18.44 12.459z" id="e"/><path d="M37.574 22c-.815 0-1.606-.047-2.42-.163-4.627-.606-8.75-2.958-11.579-6.592-2.852-3.634-4.051-8.129-3.404-12.67a3.012 3.012 0 0 1 3.452-2.54L52.365 3.88c.815.116 1.534.512 2.013 1.14.48.63.696 1.422.6 2.214C53.755 15.665 46.276 22 37.575 22zM26.212 6.417a10.893 10.893 0 0 0 2.229 5.241 11.389 11.389 0 0 0 7.527 4.286c5.298.722 10.092-2.166 12.082-6.592L26.212 6.417z" id="f"/><path d="M286.124 226c-5.207 0-10.088-2.402-13.334-6.557-2.872-3.65-4.18-8.238-3.69-12.922.491-4.684 2.71-8.887 6.283-11.841a2.942 2.942 0 0 1 4.203.456l17.747 22.626c.514.624.724 1.44.654 2.257-.094.817-.467 1.561-1.098 2.066-3.082 2.522-6.888 3.915-10.765 3.915zm-9.083-24.282a11.248 11.248 0 0 0-2.008 5.452c-.327 3.05.537 6.028 2.405 8.382 2.125 2.714 5.3 4.276 8.686 4.276 1.541 0 3.036-.313 4.414-.937l-13.497-17.173z" id="g"/><path d="M416.528 183c-6.188 0-11.97-3.423-15.1-8.955-.86-1.513-.383-3.447 1.075-4.34l24.895-15.254c.693-.422 1.53-.57 2.318-.348.789.199 1.458.744 1.864 1.464 4.898 8.656 2.126 19.818-6.188 24.903a16.827 16.827 0 0 1-8.864 2.53zm-7.933-9.673c2.103 2.083 4.946 3.323 7.933 3.323 2.03 0 4.014-.57 5.758-1.637 4.516-2.753 6.523-8.26 5.232-13.27l-18.923 11.584z" id="h"/><path d="M348.272 48c-9.213 0-16.801-7.308-17.249-16.647a17.53 17.53 0 0 1 4.43-12.61c3.11-3.464 7.352-5.518 11.97-5.733 1.862-.143 3.087 1.218 3.158 2.914l1.414 28.876c.047.812-.236 1.6-.778 2.197A3.08 3.08 0 0 1 349.12 48h-.848zm-3.535-28.326c-1.838.621-3.464 1.696-4.807 3.177a11.325 11.325 0 0 0-2.874 8.191c.259 5.231 3.935 9.482 8.765 10.581l-1.084-21.949z" id="i"/></defs><g fill="none" fill-rule="evenodd"><g transform="matrix(1 0 0 -1 0 466)"><use fill="#FFF" xlink:href="#a"/><use fill="#F4FCFD" xlink:href="#a"/></g><g transform="matrix(1 0 0 -1 0 466)"><use fill="#FFF" xlink:href="#b"/><use fill="#F4FCFD" xlink:href="#b"/></g><g transform="matrix(1 0 0 -1 0 466)"><use fill="#FFF" xlink:href="#c"/><use fill="#F4FCFD" xlink:href="#c"/></g><g transform="matrix(1 0 0 -1 0 466)"><use fill="#FFF" xlink:href="#d"/><use fill="#F4FCFD" xlink:href="#d"/></g><g transform="matrix(1 0 0 -1 0 466)"><use fill="#FFF" xlink:href="#e"/><use fill="#F4FCFD" xlink:href="#e"/></g><g transform="matrix(1 0 0 -1 0 466)"><use fill="#FFF" xlink:href="#f"/><use fill="#F4FCFD" xlink:href="#f"/></g><g transform="matrix(1 0 0 -1 0 466)"><use fill="#FFF" xlink:href="#g"/><use fill="#F4FCFD" xlink:href="#g"/></g><g transform="matrix(1 0 0 -1 0 466)"><use fill="#FFF" xlink:href="#h"/><use fill="#F4FCFD" xlink:href="#h"/></g><g transform="matrix(1 0 0 -1 0 466)"><use fill="#FFF" xlink:href="#i"/><use fill="#F4FCFD" xlink:href="#i"/></g></g></svg>