<svg width="161" height="125" xmlns="http://www.w3.org/2000/svg"><g fill="none" fill-rule="evenodd"><path fill="#D9E8EC" d="M158.466 9.727L160.39 112.3l-65.977-2.65z"/><path fill="#FFF" d="M88.356 3.16v106.048h69.407V.684z"/><path d="M118.144 66.167a2.068 2.068 0 0 0-.184-.726c-.097-.305-.326-.34-.516-.08a2.17 2.17 0 0 0-.29 1.249.855.855 0 0 1-.099.458c-.178-.37-.334-.693-.487-1.019l.002.002a.136.136 0 0 1 0-.114c.413-.237.21-.6.167-.907l-.001.002a10.098 10.098 0 0 0-1.01-3.105.392.392 0 0 0-.413-.297.407.407 0 0 0-.206.435 4.06 4.06 0 0 0 .133 1.11l-.097.03-.866-1.325c.288-.695-.144-1.306-.237-1.955l-.001.002a1.182 1.182 0 0 0-.42-.778c-.079-.063-.067-.281-.242-.175a.332.332 0 0 0-.152.345c.067.444.091.895.198 1.34-.278-.391-.737-.616-.724-1.248l-.001.001a2.598 2.598 0 0 0-.969-1.88 1.788 1.788 0 0 0-.617-.478c-.256-.09-.416-.025-.449.246-.071.603.328.992.658 1.41.317.403.835.635.938 1.23.025.144.408.172.557.393.234.345.512.66.804 1.03h.002a1.206 1.206 0 0 1-.684-.229 1.068 1.068 0 0 0-1.35.204c-.104.13-.011.202.08.25l.002-.002a4.76 4.76 0 0 0 1.973.72.167.167 0 0 0 .079-.006c.523-.286.65.136.846.461.272.449.558.889.84 1.331l.002.001c.061.07.068.17.014.246-.417-.156-.71-.52-1.125-.695-.403-.167-.573-.166-.801.2l.002.001a.255.255 0 0 0 .093.377 5.768 5.768 0 0 0 2.05 1.158c.429.085.76.429.828.86.377.871.754 1.742 1.07 2.64a.5.5 0 0 1 .059.318 14.486 14.486 0 0 0-1.445-.85c-.164-.052-.337-.168-.465.01-.138.19.053.333.157.442.458.473.939.926 1.414 1.384a.43.43 0 0 0 .192.14c.77.1.818.752.951 1.295l-.001.002c.124.548.186 1.107.18 1.668-.316-.388-.637-.774-.947-1.168a2.995 2.995 0 0 0-.642-.531.458.458 0 0 0-.545.088.308.308 0 0 0-.06.395c.097.317.298.593.571.782.552.43 1.107.851 1.658 1.283v-.002c.078.052.132.132.154.223a5.01 5.01 0 0 1-.026 1.568c-.292 1.284-1.041 2.36-1.632 3.508-.38.735-.863 1.402-1.302 2.099-.117.184-.262.351-.431.576-.123-.459-.229-.848-.332-1.237a.134.134 0 0 1-.008-.078c.585-1.091.262-2.23.168-3.355-.016-.184-.053-.367-.081-.55-.02-.122.024-.272-.167-.311l.001.001a.357.357 0 0 0-.412.158c-.119.19-.176.413-.163.639.006.437.028.871.045 1.33a.939.939 0 0 1-.26-.542 15.131 15.131 0 0 0-.693-1.503.413.413 0 0 1 .048-.53c.153-.213.225-.478.2-.74.002-.752-.05-1.503-.156-2.248a4.406 4.406 0 0 0-.21-.762c-.13-.347-.308-.374-.561-.071a1.517 1.517 0 0 0-.152 1.642c.202.573.367 1.163.49 1.76a1.188 1.188 0 0 1-.471-.56c-.429-.653-.83-1.322-1.252-1.98-.093-.148-.255-.253.012-.409a.444.444 0 0 0 .038-.414 20.906 20.906 0 0 0-1.045-3.517c-.032-.083-.03-.2-.166-.178l-.001.002a.357.357 0 0 0-.273.19c-.12.27-.123.575-.01.849.156.611.327 1.219.49 1.83.015.083.024.167.03.251-.541-.8-1.04-1.54-1.538-2.28l-.001.002a.213.213 0 0 1-.05-.22c.342-.657.087-1.296-.087-1.922a11.98 11.98 0 0 0-.47-1.13.825.825 0 0 0-.554-.515c-.342-.116-.445-.071-.359.267.085.48.211.952.378 1.41.155.339.285.685.385 1.044-.332-.386-.667-.769-.992-1.158v-.003a2.152 2.152 0 0 1-.383-.745 3.566 3.566 0 0 0-1.521-1.853.406.406 0 0 0-.51-.019.479.479 0 0 0-.077.555c.232.487.548.928.935 1.303.22.26.477.489.722.726a.489.489 0 0 0 .23.143.844.844 0 0 1 .836.583 5.287 5.287 0 0 0-1.662-.354c-.208 0-.507-.1-.57.168a.521.521 0 0 0 .431.575c.634.314 1.295.565 1.976.757.12.057.259.065.387.02.3-.216.434-.01.572.193.323.476.638.954.996 1.49l-.001.002a3.026 3.026 0 0 1-.825-.372c-.319-.121-.624-.276-.938-.403a.357.357 0 0 0-.439.075.385.385 0 0 0-.004.476c.142.315.41.555.736.663.633.205 1.247.463 1.877.674l.002.002c.291.102.541.3.712.558.598.814 1.084 1.698 1.723 2.592h-.002a2.779 2.779 0 0 1-.618-.492 2.642 2.642 0 0 0-1.596-.773c-.282-.04-.293.114-.297.277l.001-.001c-.043.421.17.826.54 1.03.849.498 1.728.945 2.632 1.338a.202.202 0 0 1 .1.044c.324.638.613 1.296.862 1.966a19.337 19.337 0 0 0-1.74-.743.415.415 0 0 0-.48.026.433.433 0 0 0 .136.46 3.57 3.57 0 0 0 1.012.929c.336.3.7.567 1.09.793.495.288.823.798.88 1.368.061.353.097.71.16 1.061l-.002.002a.378.378 0 0 1-.128.317 24.279 24.279 0 0 1-2.268 2.723c-.08.08-.24.163-.12.277.115.112.161-.074.229-.134 1.188-1.096 2.021-2.477 3.01-3.735l.002-.002a22.898 22.898 0 0 0 2.01-3.395 10.14 10.14 0 0 1 1.42-2.071.32.32 0 0 1 .111-.104c.525.185.536-.355.786-.555.065-.064.127-.135.183-.209a.313.313 0 0 1 .242-.13.325.325 0 0 1 .255.106c.86.529 1.886.715 2.876.522.318-.032.148-.285.015-.424a2.278 2.278 0 0 0-1.552-.588c-.423-.038-.849-.024-1.339-.036h-.003a8.314 8.314 0 0 1 1.961-1.334.29.29 0 0 1 .3-.009c.877.48 1.853.41 2.8.503.261.025.522.02.785.035.104.006.238.052.281-.071l-.002-.002a.293.293 0 0 0-.099-.324 1.497 1.497 0 0 0-.642-.373 14.4 14.4 0 0 0-2.5-.214 10.731 10.731 0 0 1 1.583-.778c.39-.22.816-.366 1.259-.435.4-.009.745.371 1.17.484a6.113 6.113 0 0 0 2.077.177.235.235 0 0 0 .242-.104.264.264 0 0 0-.114-.271 1.026 1.026 0 0 0-.7-.303 6.403 6.403 0 0 0-1.867-.232c.292-.163.604-.287.926-.369.046-.02.111-.008.156-.03.99-.516 1.889-.102 2.804.257a4 4 0 0 0 2.027.112c.125-.016.191-.063.104-.212a.67.67 0 0 0-.38-.323 6.557 6.557 0 0 0-2.754-.205 1.042 1.042 0 0 1-.21-.05c.514-.145.93-.266 1.349-.377.138-.037.28-.07.416-.105a.702.702 0 0 1 .672.072c.303.172.661.215.994.114.781-.143 1.543-.363 2.28-.656a.308.308 0 0 0 .284-.282.393.393 0 0 0-.311-.279 1.263 1.263 0 0 0-.736-.028 21.59 21.59 0 0 0-2.454.71.578.578 0 0 1-.28.045c.356-.3.684-.63.978-.986a.361.361 0 0 0 .122-.26.36.36 0 0 0-.101-.268c-.187-.171-.342-.08-.503.09l-.001-.002c-.562.47-1.157.9-1.782 1.284a.328.328 0 0 0-.068.035c-.382.809-1.234.704-1.895.949-.739.274-1.535.4-2.268.69-.73.287-1.493.484-2.21.822.386-.398.77-.802 1.162-1.196.34-.37.596-.81.75-1.286a.367.367 0 0 0-.076-.47.428.428 0 0 0-.546.068 3.553 3.553 0 0 0-.566.604c-.507.72-.976 1.464-1.407 2.23a.3.3 0 0 0-.06.103c.04.59-.469.61-.82.764l-.002-.001c-.196.179-.432.305-.69.369.224-.413.453-.8.65-1.206.103-.213.305-.507.066-.676l-.001.002a.632.632 0 0 0-.76.165 2.79 2.79 0 0 0-.368.464 6.79 6.79 0 0 0-.916 1.779c-.252.782-.94 1.22-1.553 1.714.856-1.61 1.528-3.296 2.237-4.96l-.002-.002a33.56 33.56 0 0 0 1.582-5.18.901.901 0 0 1 .02.5c-.002.109-.054.288.098.295.165.006.105-.172.117-.283l.001-.002a.207.207 0 0 1 .07-.078l.004.006c-.287-1.06.024-2.098.152-3.146-.297.405-.142.927-.42 1.462a7.66 7.66 0 0 0-.567-2.072c-.281-.744.207-1.352.123-2.05l.002.002a9.78 9.78 0 0 0-.322-1.9c-.032-.1-.038-.277-.176-.273a.293.293 0 0 0-.192.276 2.994 2.994 0 0 0-.13 1.548c.059.15.06.317.004.468-.563-.77-.702-1.737-1.364-2.462.585.047.698-.059.58-.61l.001-.003a13.323 13.323 0 0 0-.91-2.627.194.194 0 0 0-.225-.164.22.22 0 0 0-.154.197c-.081.24-.09.5-.025.743.062.429.018.87.114 1.312l-1.083-1.835c.445.12.495-.167.473-.463l.002.001a3.446 3.446 0 0 0-.305-1.22c-.19-.4-.336-.822-.507-1.231a.382.382 0 0 0-.409-.303c-.188.044-.08.269-.133.393-.308.73.29 1.302.299 2.056-.28-.41-.528-.774-.773-1.136-.082-.12-.15-.246-.234-.362l-.002-.002a.27.27 0 0 1 .008-.378 1.296 1.296 0 0 0-.033-1.147c-.186-.559-.438-1.095-.645-1.647l.001-.002a.376.376 0 0 0-.273-.303c-.197-.007-.091.205-.15.302-.304.506-.082 1.028-.064 1.592-.356-.44-.683-.844-1.007-1.252l.002.002a.289.289 0 0 1-.071-.178c.02-.96-.6-1.491-1.314-1.949a.603.603 0 0 0-.762.013.541.541 0 0 0-.06.752 2.531 2.531 0 0 0 1.386 1.289c1.174.27 1.343 1.386 2.064 2.018a3.844 3.844 0 0 0-1.766-.223.421.421 0 0 0-.382.236.312.312 0 0 0 .23.334 7.385 7.385 0 0 0 2.086.772.092.092 0 0 0 .04.005c.55-.335.723.14.946.455.39.549.754 1.117 1.196 1.777a14.583 14.583 0 0 0-1.67-1.001 1.132 1.132 0 0 0-1.184.152c-.211.126-.054.245.044.338.334.26.703.469 1.099.62.42.206.857.388 1.3.542a.712.712 0 0 0 .672.072.194.194 0 0 1 .271.096c.413.6.77 1.233 1.066 1.898a6.015 6.015 0 0 0-1.049-.384c-.35-.078-.71-.09-1.063-.03a.214.214 0 0 0-.24.161.27.27 0 0 0 .162.295c.772.3 1.412.94 2.23 1.057.919.133 1.072.866 1.425 1.461l-.002-.001c.13.29.233.591.306.898a4.359 4.359 0 0 1-.723-.381 3.53 3.53 0 0 0-1.343-.524.364.364 0 0 0-.426.132c-.114.167.017.271.108.379.455.44.992.783 1.581 1.008.324.203.674.356 1.042.456a.327.327 0 0 1 .222.256c.241.658.428 1.333.56 2.023.042.461-.03.925-.207 1.354-.301 1.07-.58 2.145-.93 3.202-.326.987-.743 1.934-1.127 2.896a31.84 31.84 0 0 1-.83 1.915c-.26.542-.567 1.06-.85 1.593l.002-.001a.128.128 0 0 1-.154.086c-.07-.017-.044-.089-.04-.13v-.002c.042-.853.004-1.71-.112-2.556a.538.538 0 0 1 .13-.43c.677-.924.956-2.082.772-3.212a.387.387 0 0 0-.318-.362.334.334 0 0 0-.355.306 3.992 3.992 0 0 0-.31 2.16c.053.19.035.39-.049.567a21.67 21.67 0 0 0-.619-2.109c-.125-.4-.116-.827.021-1.223a5.094 5.094 0 0 0-.019-2.64.356.356 0 0 0-.024.4c.092.64.041 1.291-.145 1.91a1.168 1.168 0 0 1-.079-.242c.067-.65.078-1.305.035-1.954-.02-.157.101-.16.216-.099zm-6.5 8.593a.332.332 0 0 1-.383-.113 1.53 1.53 0 0 0-.909-.261c-.084.008-.166.088-.235-.011a.215.215 0 0 1-.002-.226.187.187 0 0 1 .241-.07c.485.107.928.342 1.287.681zm1.297-.703c-.37-.74-.334-1.219.127-1.584a4.979 4.979 0 0 0-.127 1.584zm-8.066-9.137l-.002.001a1.59 1.59 0 0 1 1.322.996l-1.32-.997zm9.542 14.836a6.42 6.42 0 0 1-1.62-1.11 6.712 6.712 0 0 1 1.62 1.11zm2.049-27.173a2.927 2.927 0 0 1-1.198-.418c.444-.075.896.082 1.198.418zm18.23 17.41c.17-.14.314-.311.423-.503.055-.125.242-.034.366-.019.033 0 .065.017.086.04a.137.137 0 0 1 .033.092.321.321 0 0 1-.242.178c-.219.084-.446.143-.667.212zm-16.43-14.524a2.947 2.947 0 0 1-1.11-.516c.414.05.804.23 1.11.516zm-6.803 2.115c-.187.025-.448-.163-.52.168-.014.067-.088.008-.117-.025l-.001.002a.344.344 0 0 1-.013-.372c.046-.132.157-.084.264-.034l-.001.001c.161.025.302.12.388.26zm-3.06 9.363c.269.44.392.957.346 1.474-.177-.477-.15-1.007-.346-1.474zm8.713-12.331a1.564 1.564 0 0 0-.389.155c-.11.12-.181-.023-.261-.072l-.001.002a.13.13 0 0 1-.068-.168c.054-.111.157-.061.243-.054a.63.63 0 0 1 .476.137zm8.857 15.68a2.083 2.083 0 0 1-.826 1.095l.826-1.095zm-12.487-21.632a.766.766 0 0 1 .645.597 1.682 1.682 0 0 1-.645-.597zm1.516 29.392a1.464 1.464 0 0 1-.211-.9c.173.267.247.584.211.9zm6.43-16.376l.002-.001a1.221 1.221 0 0 1-.728-.435c.291.044.553.2.728.435l-.001.001zm-4.857 20.068c.98-1.567 1.805-3.254 2.515-4.51a44.61 44.61 0 0 0 4.217-10.86l-.002.002c.015-.055-.104-.167-.117-.116a43.178 43.178 0 0 1-3.707 9.945l.002.001c-.868 1.584-1.951 3.863-3.256 5.822-.12.074-.248.133-.384.177a.296.296 0 0 0-.26.277c.137-.033.274-.069.41-.11-.975 1.406-2.07 2.607-3.286 3.204-.047.022.05.162.105.134 1.305-.641 2.428-1.94 3.404-3.408a5.95 5.95 0 0 0 .11-.039.435.435 0 0 1 .42.13 5.504 5.504 0 0 0 2.352 1.456c.165.038.333.062.503.068.128.014.287.075.359-.076a.35.35 0 0 0-.1-.396 2.672 2.672 0 0 0-.938-.685c-.681-.2-1.312-.554-2.09-.787.72-.297 1.318-.612 1.964-.823v.002a.411.411 0 0 1 .363.036c.915.429 1.854.804 2.814 1.117.265.086.547.113.821.076.286-.026.323-.175.25-.408a.767.767 0 0 0-.618-.493 13.112 13.112 0 0 0-2.81-.576c.96-.43 1.978-.72 3.019-.87a.868.868 0 0 1-.165.094c-.293.084-.217.2-.043.344.261.197.557.348.872.442a7.009 7.009 0 0 0 2.866.361c.158-.01.195-.066.187-.222l-.002-.001a1.062 1.062 0 0 0-.912-.856c-.686-.082-1.377-.124-2.067-.184-.089-.006-.178-.023-.268-.036.895-.225 1.806-.376 2.717-.529.12-.039.25.028.29.147.192.272.456.488.76.62a3.542 3.542 0 0 0 2.286.42c.342-.064.386-.155.173-.454a1.769 1.769 0 0 0-1.347-.69 12.378 12.378 0 0 0-1.216-.053.378.378 0 0 1-.286-.127c.173-.038.349-.07.524-.09.829-.051 1.643-.22 2.46-.343v-.002a.626.626 0 0 1 .489.201c.413.287.917.42 1.42.378.461-.018.923-.058 1.38-.12a.427.427 0 0 0 .45-.41.475.475 0 0 0-.414-.461 4.252 4.252 0 0 0-2.155.04c-.484.11-.979.163-1.475.167.35-.318.664-.583.952-.873l-.001.001a.41.41 0 0 0 .229-.414.423.423 0 0 0-.472-.098 2.89 2.89 0 0 0-1.426.62c-.104.08-.217.145-.34.194-.369.104-.691.34-.902.664a.722.722 0 0 1-.58.351c-.51.069-1.01.175-1.543.198.348-.245.704-.478 1.038-.741.152-.121.367-.264.217-.524l-.002-.001a.257.257 0 0 0-.397-.153 14.359 14.359 0 0 0-2.79 1.751 1.49 1.49 0 0 1-.565.157c-.425.145-.884.14-1.315.286l.001-.002c.34-.286.701-.552 1.077-.793.196-.176.353-.387.556-.561.214-.185.132-.388-.127-.475a.915.915 0 0 0-.788.126 5.491 5.491 0 0 0-1.492 1.385 3.097 3.097 0 0 1-1.775 1.209c-.302.069-.587.223-.901.313.348-.414.773-.75 1.125-1.158.394-.457.827-.881 1.236-1.324.086-.093.206-.205.1-.346l-.002-.001a.336.336 0 0 0-.43-.085c-.355.17-.676.401-.945.689-.298.266-.56.563-.79.89-.472.629-.983 1.226-1.532 1.79zm6.302-31.474l.04.213c.013.07.04.133.082.189l.22 1.06c.009.26.052.518.128.769l.03-.002.104.502c.088.978.241 1.95.237 3.015a16.277 16.277 0 0 0-.676-1.728 3.557 3.557 0 0 1-.233-1.775c-.001-.95-.493-1.754-.83-2.602a.138.138 0 0 0-.152-.099c-.09.013-.065.098-.09.153a2.819 2.819 0 0 0-.022 1.206.287.287 0 0 1-.047.253c-.317-.5-.624-.992-.944-1.476a.21.21 0 0 1 .056-.276.883.883 0 0 0 .202-.334 4.374 4.374 0 0 0-.563-2.79c-.622.95-.2 1.845-.019 2.735l-.124.036c-.422-.653-.842-1.305-1.261-1.959-.02-.032-.101-.098-.027-.122.413-.14.125-.383.096-.587-.085-.563-.188-1.123-.253-1.687h-.005a2.712 2.712 0 0 0-.267-.815.216.216 0 0 0-.207-.156c-.126.002-.114.108-.148.193a4.504 4.504 0 0 0-.122 1.665.953.953 0 0 1-.433-.545c-.17-.38-.53-.724-.447-1.165.12-.635-.213-1.089-.455-1.606-.19-.41-.488-.216-.729-.22l.001-.002a.377.377 0 0 0-.308.427.762.762 0 0 1-.042.16.514.514 0 0 1-.307-.376 2.063 2.063 0 0 0-1.53-1.425c-.332-.027-.401.087-.376.369.062.686.604.956 1.098 1.257l-.001.001c.217.15.472.234.734.243a.631.631 0 0 1 .402.356c.077.108.165.204.263.295a.72.72 0 0 1 .307.42c-.268.028-.297.405-.606.4-.138-.002-.367-.028-.396.175-.03.216.201.26.35.313.543.193 1.044.598 1.683.368a.19.19 0 0 1 .203.103c.354.53.7 1.066 1.085 1.651a8.462 8.462 0 0 0-1.361-.58c-.2-.028-.42-.122-.5.139a.437.437 0 0 0 .273.472 3.65 3.65 0 0 0 1.57.759c.896.05 1.013.772 1.407 1.263.17.164.286.379.33.611a5.852 5.852 0 0 0-1.029-.293.44.44 0 0 0-.366.093c-.148.163-.25.305.02.466.59.356 1.114.87 1.9.687l.002-.002a.287.287 0 0 1 .287.178c.349.596.688 1.197 1.059 1.845l-.002.002a5.187 5.187 0 0 1-.956-.327c-.15-.03-.302-.14-.416.063l-.002-.001a.3.3 0 0 0 .115.377c.384.38.874.639 1.403.741a.61.61 0 0 1 .465.417c.231.615.46 1.228.637 1.863.14.495.258.998.35 1.504-.019-.011-.032-.012-.03.009.047.44.08.88.102 1.32-.088.99-.01 1.989-.136 2.976l-.002-.001c.072-.41.125-.82.16-1.234a23.508 23.508 0 0 1-.692 5.101c-.012.05.106.158.115.12.647-2.592.85-5.275.595-7.934.107-.215.21-.432.308-.65.087 1.39.046 2.786-.123 4.17-.157 1.76-.055 3.745-1.201 5.2a.154.154 0 0 0 .104.134l-.001.002c.917-1.164 1.038-2.673 1.132-4.137.572-.734.97-1.598 1.624-2.289.145.209-.18.297-.077.496.887-.78 1.914-1.375 2.715-2.25a.298.298 0 0 0 .122-.372c-.105-.137-.235.006-.34.072a13.067 13.067 0 0 0-2.18 1.622 2.46 2.46 0 0 1 .694-1.03c.135-.126.254-.269.355-.425a11.213 11.213 0 0 1 2.011-2.095c.382-.33.77-.653 1.177-.955a.627.627 0 0 1 .925.121.518.518 0 0 0 .535.147c.503-.116.95-.4 1.27-.807a.937.937 0 0 0 .073-.707l-.001.002c-.016-.145-.175-.14-.29-.072a1.204 1.204 0 0 1-.532.228h-.003c.045-.716.703-.855 1.138-1.2a.205.205 0 0 1 .103-.056l.001.002c1.007.057 1.51-.769 2.198-1.262a.435.435 0 0 0 .122-.398.53.53 0 0 0-.389-.285c-.693.317-1.405.612-1.707 1.42a.655.655 0 0 1-.333.32h.003c-.815.486-1.484 1.161-2.28 1.67a.528.528 0 0 1 .295-.484c.211-.284.408-.582.583-.891a.721.721 0 0 0-.035-.682l.002-.002c-.037-.128-.195-.033-.283.047a4.524 4.524 0 0 0-1.372 1.681.985.985 0 0 0-.116.827h.003c.085.166-.045.221-.125.28-.653.474-1.219 1.05-1.888 1.55.174-.396.345-.793.52-1.188.17-.268.232-.593.167-.904h.002c-.026-.082.023-.21-.088-.235a.254.254 0 0 0-.281.17c-.342.59-.643 1.203-.9 1.835a1.51 1.51 0 0 0-.213 1.23.2.2 0 0 1-.071.136l-.002-.002c-.336.35-.562.798-.905 1.124-.297.284-.349.713-.684.945a.505.505 0 0 1 .113-.507c.238-.386.362-.83.359-1.282a.243.243 0 0 0-.172-.282.212.212 0 0 0-.166.033.213.213 0 0 0-.088.145l.002-.002c-.178.581-.488 1.107-.704 1.67-.137.35-.019.473.546.58a9.983 9.983 0 0 0-1.426 2.198c.02-.326.041-.649.07-.965.181-1.491.215-2.996.1-4.493.116-.265.224-.533.326-.804.132.166.361.22.554.132a7.56 7.56 0 0 0 1.941-1.017.36.36 0 0 0 .206-.42.365.365 0 0 0-.511-.123 8.643 8.643 0 0 0-2.077 1.098c.224-.51.444-1.023.671-1.53.191-.43.39-.857.581-1.286a.403.403 0 0 1 .439-.263 3.236 3.236 0 0 0 2.335-.947.273.273 0 0 0 .068-.098.53.53 0 0 0 .118-.612.522.522 0 0 0-.585-.003c-.516.22-1.016.484-1.49.786.486-.723 1.053-1.387 1.493-2.158.068.336.234.35.491.27a3.536 3.536 0 0 0 1.537-1.116 2 2 0 0 0 .579-.691c.04-.128.172-.272 0-.394l.002.002a.333.333 0 0 0-.405.04c-.278.196-.563.383-.83.592h.003c-.172.139-.37.24-.586.298.433-.5.798-1.05 1.095-1.64.299-.518.872-.646 1.243-1.043.312-.344.593-.71.849-1.097a.496.496 0 0 0-.182-.722c-.23-.157-.402.074-.546.254-.2.281-.423.543-.669.784-.264.211-.419.527-.428.863a1.552 1.552 0 0 1-.568 1.03 7.062 7.062 0 0 1-.077-.961.43.43 0 0 0-.22-.535.416.416 0 0 0-.47.344 6.003 6.003 0 0 0-.383 1.678.567.567 0 0 0 .1.419.479.479 0 0 1-.044.712c-.578.7-1.119 1.43-1.62 2.187.063-.404.117-.81.193-1.212l-.002-.001c.051-.377.073-.76.072-1.14a.421.421 0 0 0-.285-.475.498.498 0 0 0-.5.31c-.1.185-.163.387-.186.597a4.95 4.95 0 0 0-.005 2.423.49.49 0 0 1-.13.57c-.276.251-.32.662-.644.941h-.003a2.702 2.702 0 0 1 .043-.76.612.612 0 0 0-.099-.525.429.429 0 0 0-.392-.23.36.36 0 0 0-.249.323c-.23.735-.387 1.495-.469 2.262a.628.628 0 0 0 .099.53c.21.204.23.534.045.764-.169.357-.322.722-.471 1.091a22.688 22.688 0 0 0-.02-.186c.008.003.011 0 .01-.008l-.865-4.175-.121-.656.001-.002a2.959 2.959 0 0 0-.005.054l-.347-1.675c-.004-.017-.028-.048-.053-.072-.06-.389.138-.75.208-1.127l.002.002a.091.091 0 0 1 .088-.103c1.023-.038 1.612-.741 2.206-1.438l.001.001.024-.031c.053-.096.2-.18.079-.307a.268.268 0 0 0-.335.003 8.496 8.496 0 0 0-1.782 1.2c.16-.509.356-1.006.59-1.484a.142.142 0 0 1 .164-.068c.713.072 1.23-.372 1.783-.708a.415.415 0 0 0 .225-.504c-.088-.244-.291-.136-.443-.123v.002a2.293 2.293 0 0 0-1.46.786 9.66 9.66 0 0 1 1.072-2.408c.159.436.252.445.542.126v.003c.26-.297.544-.574.844-.83a1.49 1.49 0 0 0 .478-.656c.032-.09.155-.158.023-.268l-.002-.002a.23.23 0 0 0-.29-.013 5.567 5.567 0 0 0-.872.725c-.04.034-.076.07-.11.105a.161.161 0 0 1-.094-.104.163.163 0 0 1 .017-.14c.174-.414.397-.802.666-1.163.409-.484.725-1.04.934-1.64.013-.036.012-.079.026-.115a.435.435 0 0 0-.079-.572.448.448 0 0 0-.581.19c-.37.422-.664.907-.866 1.432a.827.827 0 0 0 .03.784.334.334 0 0 1 .003.37c-.27.524-.529 1.048-.824 1.568v.004a5.638 5.638 0 0 0-.056-1.517.544.544 0 0 0-.377-.533.51.51 0 0 0-.321.57 3.406 3.406 0 0 0 .141 1.746c.18.349.163.765-.044 1.1-.146.432-.34.85-.57 1.244a4.509 4.509 0 0 0-.25-.923.342.342 0 0 0-.414-.196.32.32 0 0 0-.266.346c-.05.525-.01 1.056.113 1.57a1.84 1.84 0 0 1-.094 1.585c-.106.28-.189.57-.247.864-.223-.195-.1-.542-.354-.7v-.002-.008h-.002.001a54.52 54.52 0 0 1-.021-.074 3.333 3.333 0 0 0-.187-.749 59.454 59.454 0 0 1-.068-.283.199.199 0 0 0-.05-.068c-.26-.943-.731-1.809-1.03-2.738a3.679 3.679 0 0 1-.04-.937.168.168 0 0 1 .134-.177c.66-.178 1.02-.755 1.518-1.15l-.002.001c.253-.188.452-.44.574-.731.13-.32-.046-.314-.24-.319a1.705 1.705 0 0 0-1.094.64 7.188 7.188 0 0 0-.65.7c.046-.78.23-1.547.545-2.263a8.82 8.82 0 0 1 1.122-1.202c.198-.23.382-.474.579-.705.053-.063.155-.133.071-.235h-.002a.217.217 0 0 0-.29-.031c-.349.18-.665.416-.94.699a2.137 2.137 0 0 1 .79-1.53.856.856 0 0 0 .365-.977c-.009-.223.034-.445.12-.65a.334.334 0 0 0-.08-.398.43.43 0 0 0-.494.155c-.221.312-.386.659-.483 1.026-.236.546-.097 1.144-.276 1.69-.117.358-.246.713-.37 1.068l-.172.008c-.01-.281-.025-.562-.032-.843h-.003a.875.875 0 0 0-.17-.428.164.164 0 0 0-.104-.083.162.162 0 0 0-.134.015.229.229 0 0 0-.205.203c-.047.599 0 1.202.14 1.784 0 .053.02.102.055.141.581.236.042.54.088.806a.944.944 0 0 0-.335-.504c-.419-.124-.552.016-.544.454a3.412 3.412 0 0 0 .457 1.93.752.752 0 0 1-.046.377l-.096.782.002.001a1.616 1.616 0 0 1-.343-.688c-.635-1.473-1.356-2.936-1.49-4.555a8.618 8.618 0 0 1 .057-2.617c.018-.083.012-.152.162-.152h.003a3.366 3.366 0 0 0 1.85-.842.291.291 0 0 0 .021-.433.361.361 0 0 0-.453-.145 5.38 5.38 0 0 0-1.01.519.232.232 0 0 1-.228.055c.321-.42.618-.86.886-1.316a.435.435 0 0 1 .189-.195c.858-.4 1.058-1.217 1.28-2.016a.242.242 0 0 0-.043-.29.31.31 0 0 0-.324.105c-.499.507-1.024.995-1.086 1.772a.431.431 0 0 1-.23.313 2.238 2.238 0 0 1 .027-.782c-.006-.177.047-.43-.18-.474-.237-.046-.314.195-.385.378h-.003c-.169.44-.23.916-.173 1.385.086.669-.25 1.089-.648 1.62l-.001.002a13.99 13.99 0 0 1-.044-1.78c.012-.13.016-.264.01-.396a.812.812 0 0 1 .304-.756 5.6 5.6 0 0 0 1.205-1.713.434.434 0 0 0-.234-.653.463.463 0 0 0-.583.35c-.21.463-.393.934-.61 1.397a8.476 8.476 0 0 1 .27-2.485c.019-.062.018-.15.098-.153.436-.012.471-.368.547-.66.127-.477.24-.96.321-1.447.043-.248.093-.576-.267-.642l.001-.002a.623.623 0 0 0-.636.462 2.891 2.891 0 0 0-.207 1.58c.046.527-.223.991-.226 1.505l.002-.002c.015.134-.175.176-.218.05a5.444 5.444 0 0 0-.521-.529.227.227 0 0 0-.277-.095.181.181 0 0 0-.1.118.188.188 0 0 0 .018.155c.233.644.24 1.389.621 1.945.249.409.34.894.26 1.365-.04.723-.038 1.447.008 2.172a2.355 2.355 0 0 1-.26-.835c-.145-.41-.28-.822-.4-1.238-.05-.182-.19-.39.057-.556.069-.048.027-.129-.035-.16-.315-.145-.199-.401-.184-.642a2.67 2.67 0 0 0-.077-1.29c-.047-.108-.104-.212-.155-.317a.45.45 0 0 0-.5-.22c-.204.025-.124.235-.13.365.018.77.23 1.523.615 2.19.173.418.298.856.373 1.3a6.754 6.754 0 0 1-.729-.743c-.16-.261-.574-.186-.87-.272-.134-.038-.162.187-.064.336.507.761.95 1.584 1.906 1.89l-.002.002a.136.136 0 0 1 .1.14c.139.907.434 1.78.582 2.69.081.496.186 1.007.317 1.502v.003c.052.186.068.38.05.572l-.826-.938-.001.002a1.605 1.605 0 0 0-.211-.231c-.181-.14-.297-.243.029-.355a.386.386 0 0 0 .173-.377 2.231 2.231 0 0 0-.168-1.126 6.218 6.218 0 0 0-.81-1.564c-.058-.071-.088-.182-.198-.16a.241.241 0 0 0-.116.223c-.198.516.087.954.244 1.4.1.408.274.794.513 1.14a.486.486 0 0 1 .013.464c-.618-.496-1.243-.928-1.425-1.73a3.284 3.284 0 0 0-.744-1.182.575.575 0 0 0-.816-.086c-.252.268.05.467.151.63l.001-.002c.254.377.54.733.855 1.06.121.14.272.254.442.33.468.242.868.601 1.159 1.04a3.705 3.705 0 0 0-1.34-.246.178.178 0 0 0-.21.063.164.164 0 0 0 .056.212c.54.407 1.027.987 1.796.852 1.107-.194 1.244.743 1.612 1.361.273.395.493.823.651 1.275l.043.157-.002.002a.203.203 0 0 1-.193-.166.258.258 0 0 0-.159-.114.246.246 0 0 0-.19.034c-.162.044-.073.173-.07.267v-.002c.088.522.245 1.028.464 1.509.04.086.056.178.05.272-.745-.541-1.018-1.378-1.31-2.208a2.037 2.037 0 0 0-.616-.99c-.178-.14-.249.006-.23.089.07.336-.117.688.152 1.04a.342.342 0 0 1-.329-.259c-.156-.727-.77-1.029-1.293-1.409a.35.35 0 0 0-.44-.052.291.291 0 0 0 .043.428c.37.601.923 1.07 1.575 1.34.394.217.736.513 1.007.87.071.067.066.133-.038.176a.524.524 0 0 0-.169.103c-.13.135-.423.168-.366.411.065.268.376.153.559.252a.213.213 0 0 0 .155-.01c.632-.259.993.077 1.29.573l.002-.002c.049.079.11.15.179.207.268.233.288.372-.106.494a.488.488 0 1 0 .006.855c.196.134.429.204.666.194.14-.056.283-.089.432-.098.195.208.355.447.47.706.206.48.528.892.782 1.343.072.284.147.567.223.85.11.517.264 1.024.461 1.513v.003c.005.01.015.021.027.033zm-.103-.46a8.53 8.53 0 0 1-.208-.717c.079.237.148.476.208.717zm1.373 6.723a97.32 97.32 0 0 0-.161.41 25.092 25.092 0 0 0-.365-3.265l.487 2.347c-.006-.001-.01.001-.008.01.017.166.033.332.047.498zm-4.17 1.478v-.002a.87.87 0 0 1 .678.49c-.374.015-.456-.329-.678-.49v.002zm4.473 7.593a4.841 4.841 0 0 1-.904.879.38.38 0 0 0-.245.402c.058.23.264.18.426.189a4.4 4.4 0 0 0 1.434-.241c.553-.05 1.087-.2 1.585-.441a.313.313 0 0 0 .24-.276.325.325 0 0 0-.318-.24c-.552-.141-1.02.177-1.528.264-.369.063-.726.188-1.186.31.563-.627 1.055-1.17 1.546-1.717a.195.195 0 0 1 .134-.065.2.2 0 0 1 .142.051c.932.44 2.018.396 2.913-.112.181-.094.468-.113.373-.45a.58.58 0 0 0-.565-.465 4.117 4.117 0 0 0-2.368.598.177.177 0 0 1-.195.028 22.435 22.435 0 0 1 3.176-2.774c.583-.391 1.21-.72 1.818-1.074.276-.16.529-.183.678.163a.54.54 0 0 0 .095.146.637.637 0 0 1 .665.257c.026.003.05.007.074.012a2.7 2.7 0 0 0 1.273.156c.175-.052.456-.009.463-.264a.55.55 0 0 0-.427-.555 2.729 2.729 0 0 0-1.732-.147.39.39 0 0 1-.379.003.16.16 0 0 1 .125-.18c.916-.326 1.756-.824 2.651-1.2a.357.357 0 0 1 .31-.062.361.361 0 0 1 .244.203.3.3 0 0 0 .361.153 3.873 3.873 0 0 0 2.336-.919.395.395 0 0 0 .207-.32l-.001-.001c-.025-.163-.21-.137-.327-.17a2.498 2.498 0 0 0-1.88.388c-.517.264-1.083.383-1.69.663a7.85 7.85 0 0 0 .306-1.249.24.24 0 0 0-.023-.297.271.271 0 0 0-.3.013c-.21.11-.398.256-.556.433-.328.388-.636.796-.916 1.22a.243.243 0 0 0-.069.097l.002-.002c-.025.746-.678.83-1.157 1.09a.821.821 0 0 1-.506.187l-.001.002c.11-.327.2-.648.324-.956.066-.1.07-.23.005-.331a.316.316 0 0 0-.37-.035 1.166 1.166 0 0 0-.59.442l.002.001c-.251.52-.757.901-.838 1.502-.079.34-.314.625-.635.765-.438.283-.834.61-1.264.938.188-.422.368-.848.567-1.266.15-.364.25-.745.302-1.133a.296.296 0 0 0-.197-.353.274.274 0 0 0-.321.162 12.99 12.99 0 0 0-1.199 2.432.296.296 0 0 0-.033.191c.22.826-.368 1.247-.86 1.704-.427.39-.827.807-1.197 1.25zm2.939 4.85c-.128.155-.25.319-.361.49a.284.284 0 0 0 .037.332c.09.084.231.08.318-.007a3.914 3.914 0 0 0 1.682-1.57 5.67 5.67 0 0 1 .535-.735.311.311 0 0 0 .017-.43c-.13-.151-.266-.034-.394.019a3.271 3.271 0 0 0-1.013.965c-.32.266-.597.583-.821.935zm-3.896-4.316c.302-.071.562-.26.725-.525a8.29 8.29 0 0 0 1.364-2.2c.057-.134.093-.274.106-.416.017-.134.105-.309-.08-.384l.002-.002a.389.389 0 0 0-.443.173 7.041 7.041 0 0 0-.657 1.162 8.412 8.412 0 0 1-.789 1.38c-.138.251-.216.53-.224.818l-.004-.006zm4.517-8.863a.293.293 0 0 0-.06.337.255.255 0 0 0 .276.086 3.657 3.657 0 0 0 2.292-1.085.275.275 0 0 0 .018-.33.206.206 0 0 0-.248-.145 5.7 5.7 0 0 0-2.278 1.137zm.682 5.257c.225.036.504.085.784.125.515.11 1.05.092 1.558-.056a.316.316 0 0 0 .295-.26.354.354 0 0 0-.352-.318 8.105 8.105 0 0 0-2.186-.016.354.354 0 0 0-.296.232c-.05.134.07.183.197.293z" fill="#C5E5FC"/><g><path fill="#D9E8EC" d="M65.703 22.368l1.923 102.574-65.978-2.65z"/><path fill="#FFF" d="M.121 21.326v100.857H65V19.715z"/><path d="M36.087 81.694c.016-.25.08-.497.184-.726.097-.306.326-.34.515-.08.22.376.322.812.29 1.249-.009.16.024.317.1.457.178-.37.334-.692.487-1.018l-.002.001a.136.136 0 0 0 0-.113c-.414-.237-.21-.6-.168-.907l.002.002c.164-1.083.508-2.131 1.01-3.105a.392.392 0 0 1 .412-.298c.156.085.24.26.206.435a4.06 4.06 0 0 1-.132 1.111l.097.03.866-1.326c-.288-.694.143-1.305.236-1.954l.002.002c.033-.305.184-.582.419-.779.08-.063.068-.28.242-.174.118.072.178.21.152.345-.067.444-.09.894-.198 1.34.278-.392.738-.616.724-1.249l.002.002a2.598 2.598 0 0 1 .968-1.88c.166-.202.379-.365.617-.478.257-.09.416-.026.45.246.071.603-.328.992-.659 1.41-.317.403-.834.635-.937 1.23-.025.144-.408.172-.558.393-.233.344-.511.66-.803 1.029l-.002.001c.246-.005.484-.085.683-.23a1.068 1.068 0 0 1 1.35.205c.104.13.012.202-.08.25l-.001-.003a4.76 4.76 0 0 1-1.974.72.167.167 0 0 1-.078-.005c-.524-.287-.651.136-.847.461-.271.448-.558.889-.84 1.33l-.001.002a.196.196 0 0 0-.014.246c.417-.156.71-.52 1.124-.695.403-.168.574-.166.802.2l-.002.001a.255.255 0 0 1-.093.377 5.768 5.768 0 0 1-2.05 1.158c-.43.085-.76.428-.829.86-.376.87-.753 1.742-1.069 2.64a.5.5 0 0 0-.059.318c.466-.312.948-.595 1.445-.85.164-.052.336-.168.465.01.137.19-.054.333-.157.442-.458.472-.94.926-1.414 1.384a.43.43 0 0 1-.192.139c-.771.102-.818.752-.952 1.296l.002.002a7.246 7.246 0 0 0-.181 1.668c.317-.388.638-.775.948-1.169.188-.205.403-.384.642-.53a.458.458 0 0 1 .545.087c.114.1.14.268.06.396a1.478 1.478 0 0 1-.572.782c-.551.43-1.107.851-1.657 1.282l-.001-.001a.376.376 0 0 0-.153.223 5.01 5.01 0 0 0 .026 1.568c.292 1.284 1.041 2.36 1.632 3.507.38.736.863 1.403 1.302 2.1.116.184.262.35.43.575.124-.458.23-.848.333-1.236a.134.134 0 0 0 .007-.078c-.584-1.091-.261-2.23-.168-3.355.017-.185.053-.367.082-.55.019-.122-.025-.272.167-.311l-.002.001a.357.357 0 0 1 .413.158c.118.19.175.413.163.639-.006.436-.028.871-.045 1.33a.939.939 0 0 0 .26-.542c.202-.513.434-1.015.692-1.503a.413.413 0 0 0-.047-.53 1.104 1.104 0 0 1-.2-.74c-.002-.752.05-1.503.156-2.248.047-.26.116-.515.21-.762.129-.347.308-.374.56-.072.371.47.43 1.113.152 1.643a13.548 13.548 0 0 0-.49 1.76c.213-.133.378-.33.472-.56.428-.653.83-1.322 1.251-1.98.094-.148.255-.253-.012-.41a.444.444 0 0 1-.038-.414 20.906 20.906 0 0 1 1.046-3.516c.032-.083.03-.2.165-.178l.002.002a.357.357 0 0 1 .273.19c.12.27.123.575.01.848-.157.612-.327 1.22-.49 1.83a2.284 2.284 0 0 0-.03.252c.541-.8 1.04-1.54 1.537-2.28l.002.002a.213.213 0 0 0 .05-.22c-.343-.657-.087-1.296.086-1.922.138-.384.294-.762.47-1.13a.825.825 0 0 1 .555-.515c.341-.116.444-.072.359.267a8.37 8.37 0 0 1-.379 1.41 7.162 7.162 0 0 0-.385 1.044c.332-.386.667-.77.992-1.158V82.8c.175-.22.306-.474.384-.746a3.566 3.566 0 0 1 1.52-1.852.406.406 0 0 1 .51-.019.479.479 0 0 1 .077.555 4.492 4.492 0 0 1-.935 1.303c-.22.26-.476.489-.721.726a.489.489 0 0 1-.23.143.844.844 0 0 0-.836.583 5.287 5.287 0 0 1 1.661-.355c.209.001.507-.099.57.169a.521.521 0 0 1-.43.574c-.634.314-1.295.566-1.976.758a.507.507 0 0 1-.387.02c-.301-.217-.435-.011-.572.192-.323.476-.638.955-.996 1.49l.001.003c.293-.082.57-.208.825-.373.319-.12.623-.275.938-.402a.357.357 0 0 1 .438.074c.11.14.114.336.004.477a1.23 1.23 0 0 1-.736.662c-.632.205-1.247.463-1.877.675l-.001.001c-.291.103-.542.3-.713.56-.597.812-1.083 1.697-1.723 2.591l.002-.001c.23-.134.437-.299.62-.491.426-.433.99-.708 1.594-.773.283-.04.294.114.298.277l-.001-.002c.043.422-.17.827-.54 1.03-.85.499-1.729.946-2.632 1.338a.202.202 0 0 0-.1.045 18.676 18.676 0 0 0-.862 1.966 19.337 19.337 0 0 1 1.74-.743.415.415 0 0 1 .48.026.433.433 0 0 1-.137.46 3.57 3.57 0 0 1-1.012.929c-.336.3-.7.566-1.09.793a1.792 1.792 0 0 0-.88 1.367c-.06.354-.097.71-.159 1.062l.002.002a.378.378 0 0 0 .127.316c.688.961 1.447 1.872 2.269 2.724.08.08.239.163.12.277-.115.112-.162-.075-.229-.135-1.189-1.096-2.022-2.477-3.01-3.734l-.002-.002a22.898 22.898 0 0 1-2.01-3.395 10.14 10.14 0 0 0-1.42-2.071.32.32 0 0 0-.111-.105c-.526.186-.537-.355-.787-.554a1.915 1.915 0 0 1-.182-.209.313.313 0 0 0-.242-.13.325.325 0 0 0-.255.106 4.022 4.022 0 0 1-2.876.522c-.318-.032-.148-.285-.015-.424.425-.384.98-.594 1.552-.588.422-.039.848-.024 1.338-.036h.003a8.314 8.314 0 0 0-1.96-1.334.29.29 0 0 0-.301-.009c-.877.48-1.853.41-2.8.503-.26.024-.522.02-.785.035-.103.005-.238.051-.28-.072h.001a.293.293 0 0 1 .1-.325c.178-.176.4-.304.641-.373a14.4 14.4 0 0 1 2.501-.214 10.731 10.731 0 0 0-1.584-.779 3.731 3.731 0 0 0-1.258-.434c-.4-.009-.746.37-1.17.483a6.113 6.113 0 0 1-2.078.178.235.235 0 0 1-.241-.104.264.264 0 0 1 .114-.271c.186-.187.436-.296.7-.303a6.403 6.403 0 0 1 1.866-.232 3.844 3.844 0 0 0-.926-.37c-.046-.02-.11-.007-.155-.029-.99-.517-1.89-.103-2.804.257a4 4 0 0 1-2.027.112c-.126-.016-.192-.064-.104-.212a.67.67 0 0 1 .38-.323A6.557 6.557 0 0 1 24 86.434c.07-.01.141-.026.21-.05-.514-.145-.93-.267-1.35-.378-.138-.036-.279-.069-.416-.104a.702.702 0 0 0-.672.072c-.302.172-.66.215-.994.114a11.995 11.995 0 0 1-2.279-.657.308.308 0 0 1-.284-.281.393.393 0 0 1 .31-.279c.238-.082.494-.092.736-.028.832.188 1.65.425 2.455.71a.578.578 0 0 0 .28.044 7.626 7.626 0 0 1-.979-.986.361.361 0 0 1-.121-.26.36.36 0 0 1 .1-.267c.187-.171.342-.08.503.09l.002-.002c.561.47 1.156.899 1.782 1.284.022.008.046.02.067.035.383.809 1.235.704 1.896.949.738.274 1.534.4 2.268.69.729.287 1.492.484 2.21.822-.387-.399-.77-.802-1.162-1.197a3.49 3.49 0 0 1-.75-1.285.367.367 0 0 1 .075-.47.428.428 0 0 1 .547.068c.212.178.401.381.566.604.507.72.976 1.464 1.407 2.23a.3.3 0 0 1 .06.102c-.04.59.468.611.82.765l.001-.001c.196.179.433.305.691.368-.225-.412-.453-.8-.65-1.205-.103-.213-.305-.507-.067-.676l.002.002a.632.632 0 0 1 .759.165c.138.14.261.296.369.464.391.545.7 1.143.916 1.778.252.783.94 1.22 1.552 1.715-.856-1.61-1.527-3.296-2.236-4.961l.001-.001a33.56 33.56 0 0 1-1.582-5.18.901.901 0 0 0-.02.5c.003.109.055.288-.098.295-.165.005-.105-.173-.116-.283l-.002-.002a.207.207 0 0 0-.07-.078l-.003.006c.286-1.06-.024-2.098-.152-3.146.297.405.141.926.42 1.462.091-.714.28-1.411.566-2.073.282-.744-.206-1.351-.123-2.049l-.001.002a9.78 9.78 0 0 1 .322-1.9c.032-.101.037-.277.176-.274a.293.293 0 0 1 .192.277c.178.494.223 1.028.13 1.548a.658.658 0 0 0-.004.468c.563-.77.702-1.737 1.363-2.462-.585.047-.698-.059-.58-.611v-.002c.21-.904.514-1.784.909-2.627a.194.194 0 0 1 .225-.165.22.22 0 0 1 .154.197c.082.241.091.5.025.743-.061.43-.017.87-.113 1.313l1.083-1.835c-.445.119-.495-.168-.474-.463l-.002.001c.026-.421.13-.835.306-1.22.189-.4.335-.823.507-1.231.039-.19.215-.32.409-.303.188.044.08.269.132.393.309.729-.29 1.302-.298 2.056l.773-1.136c.081-.12.15-.246.234-.362l.002-.002a.27.27 0 0 0-.009-.379 1.296 1.296 0 0 1 .033-1.147c.186-.558.439-1.094.646-1.647l-.002-.001a.376.376 0 0 1 .274-.303c.197-.007.09.205.15.302.303.506.082 1.027.064 1.592.355-.44.682-.844 1.007-1.252l-.002.001a.289.289 0 0 0 .07-.178c-.02-.96.6-1.49 1.314-1.948a.603.603 0 0 1 .763.013c.22.193.247.526.06.752a2.531 2.531 0 0 1-1.386 1.289c-1.174.27-1.344 1.386-2.065 2.018a3.844 3.844 0 0 1 1.766-.223c.163 0 .312.09.383.236a.312.312 0 0 1-.23.334 7.385 7.385 0 0 1-2.087.771.092.092 0 0 1-.04.006c-.549-.335-.723.14-.946.455-.39.548-.754 1.116-1.196 1.776.533-.37 1.093-.704 1.67-1 .392-.18.85-.12 1.185.152.21.126.054.244-.045.338-.333.26-.702.468-1.098.62-.42.206-.857.388-1.3.542a.712.712 0 0 1-.673.072.194.194 0 0 0-.27.096c-.414.599-.77 1.233-1.067 1.897.337-.16.688-.288 1.05-.383.35-.079.71-.09 1.062-.03a.214.214 0 0 1 .241.161.27.27 0 0 1-.163.295c-.772.299-1.411.939-2.229 1.056-.92.133-1.073.867-1.425 1.462l.002-.001c-.131.29-.233.591-.307.898.254-.105.496-.232.724-.382a3.53 3.53 0 0 1 1.342-.523.364.364 0 0 1 .427.132c.114.166-.018.271-.108.378-.456.44-.992.784-1.581 1.009a3.883 3.883 0 0 1-1.042.455.327.327 0 0 0-.223.257 12.93 12.93 0 0 0-.559 2.022c-.043.462.03.926.206 1.355.302 1.07.58 2.145.931 3.202.326.987.742 1.934 1.127 2.896.257.646.532 1.287.83 1.915.26.542.567 1.06.85 1.593l-.002-.002c.02.065.086.104.154.087.07-.017.044-.089.04-.13l-.001-.002c-.042-.853-.003-1.71.113-2.556a.538.538 0 0 0-.131-.431 4.275 4.275 0 0 1-.772-3.211c.01-.18.14-.33.318-.362a.334.334 0 0 1 .355.306c.303.678.41 1.426.311 2.16a.809.809 0 0 0 .049.567c.17-.713.377-1.418.618-2.11.126-.399.117-.827-.02-1.222a5.094 5.094 0 0 1 .018-2.64c.09.115.099.274.025.4-.092.64-.041 1.291.145 1.91.035-.08.062-.16.078-.242a11.726 11.726 0 0 1-.035-1.955c.02-.156-.1-.16-.215-.098zm6.5 8.593a.332.332 0 0 0 .383-.113 1.53 1.53 0 0 1 .909-.261c.084.008.166.088.235-.012a.215.215 0 0 0 .002-.225.187.187 0 0 0-.242-.07 2.727 2.727 0 0 0-1.287.681zm-1.297-.703c.37-.74.334-1.219-.127-1.584.126.517.17 1.052.127 1.584zm8.066-9.138l.001.002a1.59 1.59 0 0 0-1.321.996l1.32-.998zm-9.542 14.837a6.42 6.42 0 0 0 1.62-1.11 6.712 6.712 0 0 0-1.62 1.11zM37.765 68.11c.426-.049.835-.194 1.198-.417a1.316 1.316 0 0 0-1.198.417zM19.535 85.52a1.825 1.825 0 0 1-.423-.504c-.056-.124-.242-.034-.366-.018a.117.117 0 0 0-.086.04.137.137 0 0 0-.034.092.321.321 0 0 0 .242.178c.22.084.446.143.667.212zm16.43-14.525a2.947 2.947 0 0 0 1.11-.515c-.415.05-.805.23-1.11.515zm6.802 2.116c.188.025.448-.163.52.168.014.067.09.008.117-.025l.002.002a.344.344 0 0 0 .013-.373c-.047-.13-.158-.083-.264-.034l.001.002a.556.556 0 0 0-.389.26zm3.06 9.363c-.268.44-.392.957-.346 1.474.178-.477.15-1.008.347-1.474zm-8.713-12.332c.138.035.268.087.39.156.109.12.181-.023.26-.072l.002.002a.13.13 0 0 0 .068-.168c-.054-.112-.158-.061-.244-.055a.63.63 0 0 0-.476.137zm-8.856 15.68c.144.449.434.834.825 1.096l-.825-1.095zm12.486-21.631a.766.766 0 0 0-.644.596c.264-.138.486-.344.644-.596zm-1.516 29.392c.166-.27.24-.586.212-.9a1.362 1.362 0 0 0-.212.9zm-6.43-16.376l-.002-.002c.287-.052.545-.207.728-.434-.29.044-.552.2-.728.434l.002.002zm4.858 20.068c-.98-1.567-1.805-3.254-2.515-4.51a44.61 44.61 0 0 1-4.217-10.86l.001.002c-.014-.056.104-.167.118-.116a43.178 43.178 0 0 0 3.707 9.945l-.002.001c.868 1.584 1.95 3.863 3.255 5.822.12.074.249.133.384.177a.296.296 0 0 1 .261.277 7.141 7.141 0 0 1-.41-.11c.975 1.406 2.07 2.607 3.285 3.204.048.022-.05.162-.104.134-1.305-.642-2.428-1.94-3.404-3.408a5.949 5.949 0 0 1-.11-.039.435.435 0 0 0-.421.13 5.504 5.504 0 0 1-2.352 1.455 2.63 2.63 0 0 1-.502.069c-.129.013-.287.075-.36-.076a.35.35 0 0 1 .1-.397c.26-.295.58-.528.939-.685.68-.2 1.312-.553 2.089-.787-.72-.297-1.317-.611-1.964-.822l.001.002a.411.411 0 0 0-.363.035 24.67 24.67 0 0 1-2.815 1.118 1.86 1.86 0 0 1-.82.076c-.286-.026-.324-.175-.25-.408a.767.767 0 0 1 .618-.493 13.112 13.112 0 0 1 2.81-.577c-.961-.428-1.979-.72-3.02-.87.05.038.108.07.166.095.293.084.217.2.043.344a2.751 2.751 0 0 1-.872.441 7.009 7.009 0 0 1-2.867.362c-.158-.01-.194-.067-.186-.222l.001-.001c.086-.453.454-.8.912-.856.686-.082 1.378-.124 2.067-.184.09-.006.179-.024.269-.036-.896-.226-1.807-.376-2.717-.53a.233.233 0 0 0-.291.148 1.822 1.822 0 0 1-.76.62 3.542 3.542 0 0 1-2.285.42c-.342-.064-.386-.156-.173-.454.323-.42.816-.674 1.346-.691.403-.043.811-.049 1.216-.052a.378.378 0 0 0 .287-.127 5.033 5.033 0 0 0-.525-.09c-.828-.051-1.642-.22-2.459-.344l-.001-.001a.626.626 0 0 0-.488.201c-.413.287-.917.42-1.42.377a14.127 14.127 0 0 1-1.381-.12.427.427 0 0 1-.45-.409.475.475 0 0 1 .414-.461 4.252 4.252 0 0 1 2.156.04c.484.11.979.163 1.474.167-.35-.318-.664-.583-.951-.874v.002a.41.41 0 0 1-.228-.414.423.423 0 0 1 .472-.098 2.89 2.89 0 0 1 1.426.62c.104.08.217.145.34.193.369.104.69.34.901.664a.722.722 0 0 0 .581.352c.509.068 1.01.175 1.543.198-.348-.245-.704-.478-1.038-.741-.152-.121-.368-.264-.217-.524l.001-.001a.257.257 0 0 1 .398-.153 14.359 14.359 0 0 1 2.79 1.75c.176.09.367.143.564.158.426.145.884.14 1.316.286l-.002-.002c-.34-.287-.7-.552-1.076-.793-.197-.176-.353-.388-.556-.561-.215-.185-.132-.389.126-.476a.915.915 0 0 1 .788.127c.58.364 1.087.835 1.493 1.385a3.097 3.097 0 0 0 1.775 1.209c.301.069.586.223.9.313-.347-.414-.772-.75-1.124-1.159-.394-.456-.827-.88-1.236-1.323-.086-.093-.207-.205-.1-.346l.002-.002a.336.336 0 0 1 .429-.085c.355.17.677.402.946.69.297.266.56.563.79.89.471.629.983 1.226 1.532 1.79zm-6.302-31.474c-.014.07-.028.142-.04.213a.453.453 0 0 1-.082.188l-.22 1.06c-.01.26-.053.52-.129.77l-.03-.002-.104.502c-.087.977-.24 1.949-.236 3.015.191-.588.418-1.166.675-1.729a3.557 3.557 0 0 0 .234-1.774c.001-.951.493-1.754.829-2.603a.138.138 0 0 1 .153-.098c.09.012.065.097.09.153.094.397.102.807.022 1.205a.287.287 0 0 0 .047.253c.316-.499.624-.99.943-1.475a.21.21 0 0 0-.056-.277.883.883 0 0 1-.201-.333c-.13-.966.07-1.948.563-2.79.621.95.199 1.845.018 2.734l.125.037a634.2 634.2 0 0 0 1.26-1.959c.021-.032.102-.098.028-.123-.414-.14-.125-.382-.096-.587.085-.563.187-1.122.252-1.686l.005-.001c.046-.284.136-.56.268-.814a.216.216 0 0 1 .207-.156c.126.002.114.108.148.193.143.543.186 1.107.121 1.665a.953.953 0 0 0 .434-.546c.17-.38.53-.723.447-1.164-.121-.635.213-1.089.454-1.606.19-.41.489-.216.73-.22l-.002-.002a.377.377 0 0 1 .308.427.762.762 0 0 0 .043.16.514.514 0 0 0 .307-.376c.213-.717.8-1.262 1.53-1.425.331-.028.4.086.375.369-.062.686-.604.956-1.098 1.256l.002.002c-.217.15-.472.234-.734.243a.631.631 0 0 0-.403.356 1.906 1.906 0 0 1-.262.295.72.72 0 0 0-.307.42c.268.028.297.404.606.399.137-.001.367-.027.395.176.03.215-.2.259-.349.312-.544.194-1.044.6-1.683.369a.19.19 0 0 0-.203.102c-.354.53-.701 1.066-1.085 1.652a8.462 8.462 0 0 1 1.361-.58c.2-.028.42-.122.5.139a.437.437 0 0 1-.273.472 3.65 3.65 0 0 1-1.57.759c-.896.049-1.013.772-1.408 1.263-.17.164-.285.379-.329.611.334-.13.68-.227 1.029-.293a.44.44 0 0 1 .366.092c.147.163.25.306-.02.467-.59.356-1.114.87-1.9.687l-.002-.002a.287.287 0 0 0-.287.178c-.35.595-.688 1.197-1.059 1.845l.001.002c.327-.078.65-.187.956-.327.15-.03.303-.14.416.063l.002-.001a.3.3 0 0 1-.115.377c-.383.38-.873.639-1.402.741a.61.61 0 0 0-.465.417c-.232.615-.46 1.227-.638 1.863-.14.495-.257.997-.35 1.504.02-.011.033-.012.03.009-.046.439-.08.88-.102 1.32.089.99.01 1.989.137 2.976l.001-.002c-.072-.409-.125-.82-.159-1.233.043 1.718.275 3.429.692 5.101.012.05-.106.157-.115.12a23.497 23.497 0 0 1-.595-7.934c-.107-.215-.21-.432-.308-.65a22.733 22.733 0 0 0 .122 4.17c.157 1.759.055 3.745 1.202 5.2a.154.154 0 0 1-.105.134l.002.001c-.917-1.164-1.038-2.672-1.132-4.136-.573-.735-.97-1.598-1.625-2.29-.144.21.18.298.078.497-.888-.78-1.915-1.375-2.716-2.25a.298.298 0 0 1-.121-.372c.104-.137.234.006.339.072a13.067 13.067 0 0 1 2.181 1.622 2.46 2.46 0 0 0-.694-1.031 2.202 2.202 0 0 1-.356-.425 11.213 11.213 0 0 0-2.01-2.094 20.11 20.11 0 0 0-1.178-.956.627.627 0 0 0-.925.121.518.518 0 0 1-.534.148c-.504-.116-.95-.4-1.27-.807a.937.937 0 0 1-.074-.707l.002.002c.015-.145.174-.14.29-.072.155.118.338.196.531.228h.004c-.045-.716-.703-.855-1.138-1.2a.205.205 0 0 0-.103-.056l-.002.001c-1.006.058-1.51-.768-2.197-1.261a.435.435 0 0 1-.123-.398.53.53 0 0 1 .39-.285c.693.317 1.405.611 1.707 1.42.07.144.185.257.333.32h-.004c.815.485 1.485 1.161 2.28 1.67a.528.528 0 0 0-.294-.484 8.533 8.533 0 0 1-.583-.891.721.721 0 0 1 .034-.683l-.001-.001c.037-.128.194-.033.282.047a4.524 4.524 0 0 1 1.372 1.681c.16.245.202.547.116.827h-.003c-.085.166.045.22.125.28.654.474 1.22 1.05 1.888 1.55-.173-.396-.345-.793-.52-1.188a1.233 1.233 0 0 1-.167-.905l-.001.002c.026-.084-.023-.21.088-.236a.254.254 0 0 1 .28.17c.343.59.644 1.203.901 1.835.245.358.322.81.213 1.23a.2.2 0 0 0 .07.135l.003-.001c.336.35.562.798.905 1.124.297.284.348.713.684.945a.505.505 0 0 0-.114-.508 2.405 2.405 0 0 1-.358-1.28.243.243 0 0 1 .172-.283.212.212 0 0 1 .166.033c.047.033.08.087.087.145l-.001-.002c.177.581.487 1.107.704 1.67.137.35.018.473-.546.58a9.983 9.983 0 0 1 1.426 2.198c-.021-.326-.041-.649-.07-.965a22.796 22.796 0 0 1-.101-4.493 16.917 16.917 0 0 1-.325-.804.464.464 0 0 1-.555.132 7.56 7.56 0 0 1-1.94-1.017.36.36 0 0 1-.207-.42.365.365 0 0 1 .512-.123c.738.27 1.436.638 2.076 1.097-.223-.51-.444-1.023-.67-1.53-.192-.43-.39-.856-.582-1.286a.403.403 0 0 0-.438-.262 3.236 3.236 0 0 1-2.335-.947.273.273 0 0 1-.068-.098.53.53 0 0 1-.118-.612.522.522 0 0 1 .585-.004c.516.221 1.016.484 1.49.786-.486-.722-1.053-1.386-1.493-2.157-.068.336-.234.35-.492.27a3.536 3.536 0 0 1-1.536-1.116 2 2 0 0 1-.58-.691c-.04-.128-.171-.273 0-.394l-.001.002a.333.333 0 0 1 .405.04c.277.196.562.383.83.591h-.003c.171.14.37.242.585.299a8.047 8.047 0 0 1-1.095-1.641c-.298-.518-.871-.645-1.242-1.042a9.076 9.076 0 0 1-.85-1.097.496.496 0 0 1 .183-.722c.23-.157.402.074.546.254.2.28.423.543.668.784.264.211.42.527.429.863.047.405.251.775.568 1.03.048-.32.072-.64.076-.962a.43.43 0 0 1 .22-.534.416.416 0 0 1 .47.344c.21.538.337 1.104.384 1.678a.567.567 0 0 1-.1.419.479.479 0 0 0 .044.712c.578.7 1.118 1.429 1.62 2.187-.063-.404-.117-.81-.193-1.212l.002-.002a8.247 8.247 0 0 1-.072-1.14.421.421 0 0 1 .284-.474.498.498 0 0 1 .5.31c.1.185.164.386.187.597a4.95 4.95 0 0 1 .005 2.422.49.49 0 0 0 .13.57c.276.252.32.663.643.942h.004c.021-.254.006-.509-.044-.76a.612.612 0 0 1 .1-.526.429.429 0 0 1 .392-.229.36.36 0 0 1 .248.323c.23.735.387 1.495.47 2.261a.628.628 0 0 1-.1.532.567.567 0 0 0-.045.763c.17.357.323.721.472 1.091l.02-.186c-.008.002-.012 0-.01-.008l.865-4.175.121-.657-.001-.001.005.054.347-1.675c.003-.017.027-.048.052-.072.06-.39-.138-.75-.207-1.127l-.002.001a.091.091 0 0 0-.088-.102c-1.024-.038-1.612-.742-2.206-1.438l-.002.001-.024-.032c-.053-.095-.199-.18-.078-.306a.268.268 0 0 1 .334.003 8.496 8.496 0 0 1 1.783 1.2 10.646 10.646 0 0 0-.59-1.484.142.142 0 0 0-.164-.068c-.713.072-1.23-.372-1.783-.709a.415.415 0 0 1-.225-.504c.088-.243.29-.136.442-.122l.001.002c.569.07 1.089.352 1.46.786a9.66 9.66 0 0 0-1.072-2.408c-.16.436-.252.445-.542.126v.003a8.033 8.033 0 0 0-.845-.83 1.49 1.49 0 0 1-.478-.656c-.031-.09-.155-.158-.022-.269l.002-.001a.23.23 0 0 1 .29-.013c.314.212.607.453.872.725.04.033.075.07.11.105a.161.161 0 0 0 .094-.104.163.163 0 0 0-.017-.14 5.503 5.503 0 0 0-.666-1.163 5.163 5.163 0 0 1-.934-1.64c-.014-.036-.012-.079-.026-.116a.435.435 0 0 1 .079-.572.448.448 0 0 1 .581.191c.37.422.664.907.865 1.432a.827.827 0 0 1-.03.784.334.334 0 0 0-.003.37c.27.523.53 1.048.824 1.568v.003a5.638 5.638 0 0 1 .057-1.516.544.544 0 0 1 .376-.533.51.51 0 0 1 .322.57 3.406 3.406 0 0 1-.142 1.746c-.18.349-.162.765.045 1.1.146.432.339.85.57 1.244.05-.316.133-.625.249-.923a.342.342 0 0 1 .414-.196.32.32 0 0 1 .266.346c.05.525.01 1.056-.113 1.57a1.84 1.84 0 0 0 .095 1.585c.106.28.188.57.247.864.223-.195.099-.543.354-.7v-.003-.007h.002-.002l.005-.011.016-.063c.033-.257.097-.508.188-.749l.068-.283a.199.199 0 0 1 .05-.068c.26-.943.731-1.809 1.03-2.738.053-.308.066-.626.039-.938a.168.168 0 0 0-.133-.176c-.661-.179-1.02-.755-1.518-1.15l.001.001a1.766 1.766 0 0 1-.573-.731c-.13-.32.046-.315.239-.319.433.064.826.295 1.095.64.231.22.448.452.649.7a6.561 6.561 0 0 0-.545-2.263 8.82 8.82 0 0 0-1.122-1.202c-.198-.23-.382-.474-.578-.705-.053-.063-.155-.133-.072-.235l.002-.001a.217.217 0 0 1 .29-.03c.35.18.666.415.94.699a2.137 2.137 0 0 0-.79-1.53.856.856 0 0 1-.365-.977 1.535 1.535 0 0 0-.118-.65.334.334 0 0 1 .08-.398.43.43 0 0 1 .492.154c.222.313.386.66.483 1.027.237.545.097 1.143.276 1.69.118.358.246.712.37 1.068l.173.008c.01-.281.025-.562.031-.844h.003a.875.875 0 0 1 .171-.427.164.164 0 0 1 .104-.084.162.162 0 0 1 .133.016c.108.01.194.095.206.203.047.599 0 1.202-.14 1.784 0 .052-.021.102-.055.141-.582.236-.043.54-.088.806a.944.944 0 0 1 .335-.504c.418-.125.552.016.544.454a3.412 3.412 0 0 1-.458 1.93.752.752 0 0 0 .047.377l.095.781-.001.002c.168-.2.285-.434.343-.688.635-1.473 1.356-2.936 1.49-4.556a8.618 8.618 0 0 0-.057-2.616c-.019-.083-.012-.152-.162-.152h-.003a3.366 3.366 0 0 1-1.85-.842.291.291 0 0 1-.021-.433.361.361 0 0 1 .452-.145c.356.137.695.311 1.011.518.062.06.149.08.228.056-.322-.42-.618-.861-.886-1.316a.435.435 0 0 0-.19-.195c-.858-.4-1.057-1.217-1.28-2.016a.242.242 0 0 1 .044-.291.31.31 0 0 1 .323.105c.5.508 1.025.996 1.086 1.772.022.136.11.253.231.314.037-.26.028-.525-.027-.783.005-.176-.047-.43.18-.474.237-.045.314.196.385.378h.003c.168.442.23.916.173 1.385-.086.67.25 1.09.648 1.62l.001.003a13.99 13.99 0 0 0 .043-1.781 2.931 2.931 0 0 1-.009-.395.812.812 0 0 0-.304-.757 5.6 5.6 0 0 1-1.205-1.713.434.434 0 0 1 .234-.652.463.463 0 0 1 .582.35c.21.463.394.934.61 1.397a8.476 8.476 0 0 0-.269-2.485c-.02-.063-.018-.15-.098-.153-.436-.012-.472-.368-.547-.66-.128-.477-.24-.96-.321-1.448-.043-.247-.093-.575.267-.641l-.002-.002a.623.623 0 0 1 .637.462c.215.495.286 1.042.206 1.579-.046.527.224.992.226 1.506l-.001-.002c-.016.134.174.176.217.05.16-.188.336-.364.522-.53a.227.227 0 0 1 .277-.095c.05.023.085.066.1.119a.188.188 0 0 1-.019.155c-.232.644-.239 1.388-.62 1.945-.25.409-.34.893-.26 1.364.04.723.038 1.448-.009 2.173.14-.26.225-.543.26-.835.146-.41.281-.822.4-1.238.05-.183.19-.39-.056-.556-.07-.048-.028-.129.035-.16.314-.145.199-.401.183-.642a2.67 2.67 0 0 1 .078-1.291c.046-.107.104-.211.155-.316a.45.45 0 0 1 .5-.22c.203.025.123.235.13.365a4.59 4.59 0 0 1-.616 2.19 6.06 6.06 0 0 0-.372 1.3c.261-.227.505-.477.728-.743.16-.262.575-.186.87-.273.135-.037.163.188.065.337-.507.761-.951 1.583-1.906 1.89l.001.002a.136.136 0 0 0-.1.139c-.138.908-.433 1.781-.582 2.69-.08.497-.185 1.008-.317 1.503v.003c-.051.186-.068.38-.049.571l.826-.937v.001c.063-.083.134-.161.212-.23.18-.14.296-.243-.03-.355a.386.386 0 0 1-.172-.377c-.043-.384.015-.77.168-1.127a6.218 6.218 0 0 1 .81-1.564c.058-.07.087-.182.198-.16a.241.241 0 0 1 .116.223c.197.516-.087.955-.245 1.4-.1.408-.274.795-.512 1.14a.486.486 0 0 0-.013.465c.618-.497 1.243-.929 1.425-1.73.162-.444.414-.848.744-1.182a.575.575 0 0 1 .816-.086c.252.267-.05.467-.151.63l-.002-.002c-.253.376-.539.733-.855 1.06-.12.14-.271.254-.441.33a3.104 3.104 0 0 0-1.159 1.039 3.705 3.705 0 0 1 1.34-.245.178.178 0 0 1 .21.063.164.164 0 0 1-.056.212c-.541.407-1.027.987-1.796.852-1.108-.194-1.244.743-1.612 1.36a5.336 5.336 0 0 0-.652 1.276l-.042.157.001.001a.203.203 0 0 0 .194-.165.258.258 0 0 1 .158-.114.246.246 0 0 1 .191.033c.162.045.073.173.069.268l.002-.002a6.116 6.116 0 0 1-.465 1.508.537.537 0 0 0-.05.273c.745-.541 1.017-1.378 1.31-2.208.104-.383.318-.728.616-.99.177-.14.248.006.23.089-.07.336.117.687-.152 1.04a.342.342 0 0 0 .328-.259c.156-.727.77-1.03 1.293-1.41a.35.35 0 0 1 .44-.051.291.291 0 0 1-.043.428c-.37.6-.922 1.07-1.575 1.34a3.202 3.202 0 0 0-1.007.87c-.07.067-.066.132.039.176a.524.524 0 0 1 .169.102c.13.135.423.169.365.412-.064.267-.375.153-.558.252a.213.213 0 0 1-.155-.011c-.632-.258-.994.078-1.29.574l-.002-.002a.866.866 0 0 1-.18.207c-.267.232-.287.372.107.494a.488.488 0 1 1-.006.855 1.102 1.102 0 0 1-.666.194 1.398 1.398 0 0 0-.432-.099 2.56 2.56 0 0 0-.47.707c-.207.48-.528.892-.783 1.343-.072.284-.146.567-.223.85a9.078 9.078 0 0 1-.46 1.513v.003a.152.152 0 0 1-.027.033zm.103-.46a8.53 8.53 0 0 0 .207-.717 9.782 9.782 0 0 0-.207.717zm-1.374 6.723l.162.41c.05-1.095.171-2.186.364-3.266l-.486 2.348c.006-.002.01.001.008.01-.018.166-.034.332-.048.498zm4.172 1.477l-.002-.001a.87.87 0 0 0-.677.49c.374.015.455-.329.677-.49l.002.001zm-4.474 7.594c.261.332.566.626.903.879a.38.38 0 0 1 .245.402c-.057.23-.263.18-.426.188a4.4 4.4 0 0 1-1.434-.24 4.565 4.565 0 0 1-1.584-.441.313.313 0 0 1-.24-.276.325.325 0 0 1 .317-.24c.553-.142 1.02.177 1.529.264.369.063.726.188 1.186.309-.563-.626-1.056-1.169-1.546-1.716a.195.195 0 0 0-.135-.065.2.2 0 0 0-.141.051 3.166 3.166 0 0 1-2.913-.112c-.182-.094-.468-.114-.373-.45a.58.58 0 0 1 .564-.465 4.117 4.117 0 0 1 2.368.598c.053.049.13.058.195.028a22.435 22.435 0 0 0-3.176-2.774c-.583-.392-1.21-.72-1.817-1.074-.276-.16-.529-.183-.679.162a.54.54 0 0 1-.094.147.637.637 0 0 0-.665.257c-.026.003-.05.007-.075.012a2.7 2.7 0 0 1-1.273.156c-.174-.052-.455-.01-.462-.264a.55.55 0 0 1 .427-.555 2.729 2.729 0 0 1 1.732-.147.39.39 0 0 0 .379.003.16.16 0 0 0-.125-.18c-.917-.327-1.757-.824-2.652-1.2a.357.357 0 0 0-.31-.062.361.361 0 0 0-.243.203.3.3 0 0 1-.362.153 3.873 3.873 0 0 1-2.335-.92.395.395 0 0 1-.208-.32h.002c.024-.163.21-.137.327-.17a2.498 2.498 0 0 1 1.88.388c.517.264 1.083.383 1.69.663a7.85 7.85 0 0 1-.307-1.249.24.24 0 0 1 .023-.297.271.271 0 0 1 .3.012c.21.11.399.257.557.434.328.387.636.796.916 1.219.03.026.053.06.068.098l-.001-.002c.024.746.678.83 1.156 1.09a.821.821 0 0 0 .507.187v.001c-.11-.326-.199-.647-.323-.955a.303.303 0 0 1-.006-.331.316.316 0 0 1 .37-.035c.239.078.446.235.59.441l-.001.002c.25.52.756.9.838 1.502.079.34.313.625.635.765.437.283.834.61 1.263.937-.187-.42-.367-.847-.566-1.266a4.55 4.55 0 0 1-.302-1.132.296.296 0 0 1 .196-.353.274.274 0 0 1 .322.162 12.99 12.99 0 0 1 1.198 2.432.296.296 0 0 1 .034.191c-.22.826.368 1.246.86 1.704.427.39.826.807 1.197 1.25zm-2.94 4.85c.129.155.25.319.362.49a.284.284 0 0 1-.038.332.23.23 0 0 1-.318-.007 3.914 3.914 0 0 1-1.681-1.57 5.67 5.67 0 0 0-.535-.735.311.311 0 0 1-.017-.43c.13-.151.265-.034.394.018.403.245.748.575 1.013.966.32.266.597.583.82.935zm3.897-4.316a1.166 1.166 0 0 1-.726-.526 8.29 8.29 0 0 1-1.363-2.2 1.392 1.392 0 0 1-.106-.415c-.018-.134-.105-.31.079-.384l-.001-.002c.17-.05.35.02.443.173.255.364.474.754.657 1.162.218.484.483.946.788 1.38.139.25.216.53.225.818l.004-.006zm-4.518-8.863a.293.293 0 0 1 .06.337.255.255 0 0 1-.276.086 3.657 3.657 0 0 1-2.291-1.085.275.275 0 0 1-.019-.33.206.206 0 0 1 .248-.145 5.7 5.7 0 0 1 2.278 1.137zm-.682 5.256c-.225.037-.503.086-.784.126-.515.11-1.05.092-1.557-.057a.316.316 0 0 1-.296-.26c.02-.18.17-.318.353-.318a8.105 8.105 0 0 1 2.186-.015c.135.014.25.105.296.231.049.135-.07.183-.198.293z" fill="#C5E5FC"/></g></g></svg>