<svg width="123" height="94" xmlns="http://www.w3.org/2000/svg" xmlns:xlink="http://www.w3.org/1999/xlink"><defs><path d="M55.435 73.158c-1.733 0-32.179.86-52.755.86-3.573 0-3.573 4.834 0 4.834 1.962 0 10.331.019 15.5.011 7.384-.01 7.82 6.558 0 6.558-6.586 0-13.125.045-15.5 2.019-3.573 2.97-1.181 6.39 2.644 6.39h72.384c7.648 0 5.577-6.913 0-8.41-5.577-1.496-7.677-4.83-7.677-8.116 0-3.286-12.862-4.146-14.596-4.146z" id="a"/><path d="M.794.531c1.539 26.434 2.308 40.67 2.308 42.707 0 3.056 2.8 6.148 6.475 6.148h61.03c4.078 0 7.324-4.622 8.714-10.046.927-3.617 3.708-16.553 8.343-38.809H.794z" id="b"/></defs><g fill="none" fill-rule="evenodd"><g transform="translate(0 .097)"><use fill="#FFF" xlink:href="#a"/><use fill="#F4FCFD" xlink:href="#a"/></g><g transform="translate(31.092 40.334)"><mask id="c" fill="#fff"><use xlink:href="#b"/></mask><use fill="#4743CE" xlink:href="#b"/><use fill="#247FFB" xlink:href="#b"/><path d="M9.427 3.972c42.163 1.335 57.38 1.205 64.395 3.584 7.756 2.63 5.034 22.283 0 36.521-2.058 5.82-14.046 3.313-20.513 5.323 25.808 7.326 38.699-8.59 38.671-47.75L6.955-1.405C.6.632 1.424 2.425 9.427 3.972z" fill="#0A56DF" mask="url(#c)"/></g><path d="M71.983 40.983c-2.773-11.746-7.94-33.63-7.94-37.293 0-3.663 4.614-3.663 6.692-1.832 1.384 1.221 3.875 14.263 7.472 39.125-2.401 3.815-4.476 3.815-6.224 0z" fill="#13287E"/><path d="M28.572 43.778c25.006 0 91.548.376 93.863 0 1.946-1.507-1.702-7.631-3.21-7.631H33.923c-5.35 0-5.35 7.63-5.35 7.63z" fill="#13287E"/></g></svg>